<?xml version="1.0" standalone="no"?>
<!DOCTYPE svg PUBLIC "-//W3C//DTD SVG 20010904//EN"
 "http://www.w3.org/TR/2001/REC-SVG-20010904/DTD/svg10.dtd">
<svg version="1.0" xmlns="http://www.w3.org/2000/svg"
 width="512.000000pt" height="512.000000pt" viewBox="0 0 512.000000 512.000000"
 preserveAspectRatio="xMidYMid meet">
<metadata>
Created by potrace 1.11, written by Peter Selinger 2001-2013
</metadata>
<g transform="translate(0.000000,512.000000) scale(0.100000,-0.100000)"
fill="#000000" stroke="none">
<path d="M2462 4175 l-27 -23 -2 -205 c-2 -203 -1 -205 22 -227 36 -33 92 -32
120 4 22 27 22 35 21 227 -1 186 -2 200 -21 219 -32 31 -80 33 -113 5z"/>
<path d="M1664 3968 c-22 -10 -44 -47 -44 -74 0 -18 174 -320 201 -349 27 -30
72 -30 105 -1 47 40 39 71 -66 251 -51 88 -100 166 -108 173 -19 14 -59 15
-88 0z"/>
<path d="M3283 3973 c-7 -2 -27 -30 -45 -61 -18 -31 -37 -65 -43 -74 -5 -10
-36 -62 -67 -117 -32 -55 -58 -109 -58 -120 0 -29 40 -70 76 -77 24 -4 37 0
57 18 33 30 207 335 207 364 0 45 -79 87 -127 67z"/>
<path d="M2399 3485 c-2 -2 -22 -6 -44 -9 -22 -4 -74 -16 -115 -27 -342 -96
-605 -372 -692 -729 -23 -92 -30 -299 -14 -395 11 -69 53 -200 82 -259 l25
-49 -35 -81 c-53 -125 -60 -159 -60 -301 0 -112 4 -140 26 -207 87 -260 295
-446 555 -492 114 -20 1608 -21 1702 -1 332 72 549 424 460 745 -48 173 -164
320 -310 392 -41 20 -81 38 -90 41 -9 3 -37 44 -63 92 -61 115 -134 205 -224
277 -40 32 -77 58 -82 58 -4 0 -13 39 -20 88 -56 401 -348 726 -748 834 -55
15 -115 21 -213 24 -75 1 -138 1 -140 -1z"/>
<path d="M1075 3378 c-11 -6 -25 -19 -32 -27 -16 -21 -16 -73 0 -93 10 -12
161 -108 171 -108 2 0 41 -22 87 -50 46 -27 94 -50 107 -50 31 0 82 52 82 84
0 14 -10 36 -22 49 -28 30 -333 207 -356 207 -10 0 -26 -6 -37 -12z"/>
<path d="M3880 3377 c-90 -48 -299 -172 -317 -190 -26 -23 -28 -40 -12 -85 8
-24 20 -34 48 -43 39 -12 55 -5 226 98 11 7 27 15 35 19 32 15 125 77 132 88
17 25 7 68 -21 97 -32 32 -53 36 -91 16z"/>
<path d="M838 2550 c-37 -37 -36 -73 1 -110 l29 -29 186 0 c103 0 198 4 211 9
51 19 64 95 24 135 -18 19 -34 20 -221 21 l-202 2 -28 -28z"/>
<path d="M3765 2570 c-30 -11 -45 -33 -50 -70 -3 -26 2 -39 25 -62 l30 -29
200 3 c191 3 200 4 222 25 30 30 30 86 0 116 -22 21 -30 22 -215 23 -105 1
-201 -2 -212 -6z"/>
<path d="M1369 1927 c-51 -24 -301 -172 -320 -190 -22 -20 -25 -73 -6 -98 19
-25 57 -41 83 -35 13 4 64 30 112 59 49 28 110 63 137 77 107 56 139 112 93
164 -28 31 -65 40 -99 23z"/>
</g>
</svg>
